<?xml version="1.0" encoding="utf-8"?><svg xmlns="http://www.w3.org/2000/svg" xmlns:xlink="http://www.w3.org/1999/xlink" width="1024" height="625" preserveAspectRatio="xMidYMid" viewBox="0 0 1024 625" style="z-index:1;margin-right:-2px;display:block;background-repeat-y:initial;background-repeat-x:initial;background-color:rgb(255, 255, 255);animation-play-state:paused" ><g transform="translate(512,312.5) scale(1,1) translate(-512,-312.5)" style="transform:matrix(1, 0, 0, 1, 0, 0);animation-play-state:paused" ><linearGradient id="lg-0.5493788240093085" x1="0" x2="1" y1="0" y2="0" style="animation-play-state:paused" ><stop stop-color="#ff00ff" offset="0" style="animation-play-state:paused" ></stop>

  
<stop stop-color="#00ffff" offset="1" style="animation-play-state:paused" ></stop></linearGradient>
<path d="M 0 0 L 0 539.77 Q 102.4 606.987 204.8 569.472 T 409.6 441.385 T 614.4 388.967 T 819.2 325.753 T 1024 338.623 L 1024 0 Z" fill="url(#lg-0.5493788240093085)" opacity="0.4" style="opacity:0.4;animation-play-state:paused" ></path>
<path d="M 0 0 L 0 562.654 Q 102.4 549.166 204.8 510.704 T 409.6 474.394 T 614.4 397.629 T 819.2 365.931 T 1024 292.96 L 1024 0 Z" fill="url(#lg-0.5493788240093085)" opacity="0.4" style="opacity:0.4;animation-play-state:paused" ></path>
<path d="M 0 0 L 0 611.737 Q 102.4 572.608 204.8 537.237 T 409.6 495.136 T 614.4 353.744 T 819.2 330.383 T 1024 253.187 L 1024 0 Z" fill="url(#lg-0.5493788240093085)" opacity="0.4" style="opacity:0.4;animation-play-state:paused" ></path>
<path d="M 0 0 L 0 578.03 Q 102.4 553.541 204.8 518.749 T 409.6 434.37 T 614.4 362.596 T 819.2 345.596 T 1024 214.525 L 1024 0 Z" fill="url(#lg-0.5493788240093085)" opacity="0.4" style="opacity:0.4;animation-play-state:paused" ></path>
<path d="M 0 0 L 0 567.196 Q 102.4 534.164 204.8 493.575 T 409.6 435.927 T 614.4 384.604 T 819.2 319.289 T 1024 270.311 L 1024 0 Z" fill="url(#lg-0.5493788240093085)" opacity="0.4" style="opacity:0.4;animation-play-state:paused" ></path></g></svg>